<svg id="Ebene_1" data-name="Ebene 1" xmlns="http://www.w3.org/2000/svg" viewBox="0 0 256.07 44.75">
<svg stroke="currentColor" fill="currentColor" stroke-width="0" role="img" viewBox="0 0 45 45" height="50" width="50" xmlns="http://www.w3.org/2000/svg">
                                                <path d="M12.17,11.15a1.84,1.84,0,1,0,0,2.6h0A1.87,1.87,0,0,0,12.17,11.15Z" transform="translate(0 0.02)"></path>
                                                <path d="M17.07,16.05a1.84,1.84,0,1,0,0,2.6h0a1.71,1.71,0,0,0,0-2.6Z" transform="translate(0 0.02)"></path>
                                                <path d="M17.37,5.85a2.26,2.26,0,1,0,0,3.2A2.43,2.43,0,0,0,17.37,5.85Z" transform="translate(0 0.02)"></path>
                                                <path d="M22.37,10.85a2.26,2.26,0,1,0,0,3.2A2.43,2.43,0,0,0,22.37,10.85Z" transform="translate(0 0.02)"></path>
                                                <path d="M27.27,15.75a2.26,2.26,0,1,0,0,3.2,2.24,2.24,0,0,0,.05-3.15Z" transform="translate(0 0.02)"></path>
                                                <path d="M33.67,25.35a2.62,2.62,0,1,0,3.71,0h0A2.66,2.66,0,0,0,33.67,25.35Z" transform="translate(0 0.02)"></path>
                                                <path d="M28.77,30.35a2.62,2.62,0,1,0,3.71,0h0A2.5,2.5,0,0,0,29,30.17C28.89,30.22,28.83,30.29,28.77,30.35Z" transform="translate(0 0.02)"></path>
                                                <path d="M23.77,35.25a2.62,2.62,0,1,0,3.71,0h0A2.66,2.66,0,0,0,23.77,35.25Z" transform="translate(0 0.02)"></path>
                                                <path d="M18.87,40.25a2.62,2.62,0,1,0,3.71,0h0a2.5,2.5,0,0,0-3.52-.18C19,40.12,18.93,40.19,18.87,40.25Z" transform="translate(0 0.02)"></path>
                                                <path d="M42.37,20.55a2.62,2.62,0,1,0,0,3.71h0A2.66,2.66,0,0,0,42.37,20.55Z" transform="translate(0 0.02)"></path>
                                                <path d="M37.37,15.65a2.62,2.62,0,1,0,0,3.71h0a2.5,2.5,0,0,0,.18-3.52C37.5,15.77,37.43,15.71,37.37,15.65Z" transform="translate(0 0.02)"></path>
                                                <path d="M32.47,10.65a2.62,2.62,0,1,0,0,3.71h0A2.66,2.66,0,0,0,32.47,10.65Z" transform="translate(0 0.02)"></path>
                                                <path d="M27.47,5.75a2.62,2.62,0,1,0,0,3.71h0a2.5,2.5,0,0,0,.18-3.52C27.6,5.87,27.53,5.81,27.47,5.75Z" transform="translate(0 0.02)"></path>
                                                <path d="M22.57.75a2.62,2.62,0,1,0,0,3.71h0A2.66,2.66,0,0,0,22.57.75Z" transform="translate(0 0.02)"></path>
                                                <path d="M14.17,35.55a2.26,2.26,0,1,0,3.2,0A2.43,2.43,0,0,0,14.17,35.55Z" transform="translate(0 0.02)"></path>
                                                <path d="M9.57,30.85a1.84,1.84,0,1,0,2.6,0h0A1.87,1.87,0,0,0,9.57,30.85Z" transform="translate(0 0.02)"></path>
                                                <path d="M14.47,25.85a1.84,1.84,0,1,0,2.6,0h0A1.87,1.87,0,0,0,14.47,25.85Z" transform="translate(0 0.02)"></path>
                                                <path d="M19.37,21A1.84,1.84,0,1,0,22,21h0A1.87,1.87,0,0,0,19.37,21Z" transform="translate(0 0.02)"></path>
                                                <path d="M9.87,21.15A1.48,1.48,0,0,0,12,23.24a1.49,1.49,0,0,0,0-2.09A1.66,1.66,0,0,0,9.87,21.15Z" transform="translate(0 0.02)"></path>
                                                <path d="M4.87,26.05A1.48,1.48,0,0,0,7,28.14a1.49,1.49,0,0,0,0-2.09A1.66,1.66,0,0,0,4.87,26.05Z" transform="translate(0 0.02)"></path>
                                                <path d="M5.27,16.55a1.48,1.48,0,0,0,2.1,2.09,1.49,1.49,0,0,0,0-2.09,1.45,1.45,0,0,0-2-.05Z" transform="translate(0 0.02)"></path>
                                                <path d="M.37,21.35a1.29,1.29,0,0,0,0,1.8,1.27,1.27,0,1,0,0-1.8Z" transform="translate(0 0.02)"></path>
                                                <path d="M19.07,30.55a2.26,2.26,0,1,0,3.2,0A2.43,2.43,0,0,0,19.07,30.55Z" transform="translate(0 0.02)"></path>
                                                <path d="M24,25.65a2.26,2.26,0,1,0,3.2,0,2.24,2.24,0,0,0-3.15,0Z" transform="translate(0 0.02)"></path>
                                                <path d="M29,20.75a2.26,2.26,0,1,0,3.2,0A2.24,2.24,0,0,0,29,20.7Z" transform="translate(0 0.02)"></path>
                                            </svg>
</svg>
